<svg width="20" height="20" viewBox="0 0 20 20" fill="none" xmlns="http://www.w3.org/2000/svg">
<g clip-path="url(#clip0_1831_60)">
<path d="M19.4099 4.01918L16.2505 0.859439C16.1131 0.722003 15.9267 0.644836 15.7324 0.644836C15.5382 0.644836 15.3518 0.722003 15.2145 0.859341L12.0545 4.01928C12.0541 4.01967 12.0537 4.02026 12.0532 4.02065L5.99242 10.0815C5.86045 10.2135 5.78387 10.3907 5.77821 10.5773L5.67906 13.836C5.67291 14.0379 5.75047 14.2333 5.89327 14.3763C6.0309 14.5138 6.21728 14.5908 6.41127 14.5908C6.41869 14.5908 6.42621 14.5907 6.43364 14.5904L9.69223 14.4909C9.8787 14.4853 10.056 14.4087 10.188 14.2768L19.4099 5.05507C19.696 4.76917 19.696 4.30528 19.4099 4.01918ZM15.7322 6.66063L13.6086 4.53737L15.7324 2.41352L17.8558 4.53718L15.7322 6.66063ZM9.35729 13.0355L7.16721 13.1024L7.23383 10.9122L12.5725 5.57346L14.6962 7.69682L9.35729 13.0355Z" fill="#3A72F8"/>
<path d="M13.5443 12.0823C13.1397 12.0823 12.8117 12.4103 12.8117 12.8149V18.1721H2.09744V7.45779H7.45459C7.85918 7.45779 8.18718 7.12988 8.18718 6.7252C8.18718 6.32051 7.85918 5.9926 7.45459 5.9926H1.36485C0.960256 5.9926 0.632248 6.32051 0.632248 6.7252V18.9046C0.632248 19.3093 0.960256 19.6372 1.36485 19.6372H13.5442C13.9488 19.6372 14.2768 19.3093 14.2768 18.9046V12.8148C14.2769 12.4103 13.9489 12.0823 13.5443 12.0823Z" fill="#3A72F8"/>
</g>
<defs>
<clipPath id="clip0_1831_60">
<rect width="18.9924" height="18.9924" fill="white" transform="translate(0.632248 0.644836)"/>
</clipPath>
</defs>
</svg>
